Coordinates
version=1
nRows=26
nColumns=24
inDegrees=yes

Units are S.I. units (second, meters, Newtons, ...)
Angles are in degrees.

endheader
time	pelvis_tilt	pelvis_list	pelvis_rotation	pelvis_tx	pelvis_ty	pelvis_tz	hip_flexion_r	hip_adduction_r	hip_rotation_r	knee_angle_r	ankle_angle_r	subtalar_angle_r	mtp_angle_r	hip_flexion_l	hip_adduction_l	hip_rotation_l	knee_angle_l	ankle_angle_l	subtalar_angle_l	mtp_angle_l	lumbar_extension	lumbar_bending	lumbar_rotation
      1.99500000	     -5.95269259	     -2.17403569	      4.15770756	      0.13371567	      1.23938906	     -0.84165770	     12.15390339	      9.08989167	     -0.56626714	    -10.69179282	      2.81087037	     -4.85014141	      4.66608887	     29.70244847	      2.77342190	     -0.36846837	    -59.27096465	     -5.34047323	     -3.01960026	     21.91323537	     -6.47843941	      3.34862491	      3.91418571
      2.00000000	     -5.98400311	     -2.05961041	      4.08403416	      0.13861323	      1.23978762	     -0.84130774	     11.70763290	      9.03169552	     -0.44923524	    -10.56075433	      3.07358393	     -4.78323593	      4.65896918	     30.12751157	      2.94944657	     -0.45916583	    -58.32858103	     -4.74546481	     -2.85143226	     21.69692116	     -6.48265265	      3.22566358	      4.11360373
      2.00500000	     -6.00482625	     -1.95387414	      4.03027060	      0.14348856	      1.24017212	     -0.84100791	     11.23819346	      8.97655871	     -0.29471661	    -10.40555829	      3.28074336	     -4.71257073	      4.64069129	     30.52049534	      3.14556634	     -0.47227204	    -57.31956034	     -4.14048539	     -2.51648701	     21.34838872	     -6.49412861	      3.11256787	      4.34931022
      2.01000000	     -6.03556532	     -1.84408910	      3.96227019	      0.14841854	      1.24050854	     -0.84066050	     10.78804218	      8.92660162	     -0.11062750	    -10.27513882	      3.52183661	     -4.73080962	      4.61179749	     30.88896362	      3.32685360	     -0.51717489	    -56.22622867	     -3.60096769	     -2.39603222	     21.09160104	     -6.48579021	      2.98137167	      4.56466653
      2.01500000	     -6.06553333	     -1.74517700	      3.91234562	      0.15334467	      1.24080957	     -0.84038579	     10.31834691	      8.87981735	      0.11512581	    -10.10691877	      3.67763294	     -4.81743269	      4.55408087	     31.23749104	      3.51538649	     -0.51627031	    -55.08206143	     -3.01952606	     -2.16798003	     20.62044434	     -6.48418608	      2.88060734	      4.74280578
      2.02000000	     -6.11358005	     -1.64050228	      3.85543035	      0.15823824	      1.24104037	     -0.84013573	      9.91229036	      8.82372882	      0.34633552	    -10.02129627	      3.93270974	     -4.88852134	      4.52405922	     31.58019647	      3.72413500	     -0.48691160	    -53.85179350	     -2.55852929	     -2.23254124	     20.47283389	     -6.46789955	      2.77360394	      4.92987077
      2.02500000	     -6.11016527	     -1.53111181	      3.79147848	      0.16320048	      1.24132173	     -0.83985199	      9.39391444	      8.77226911	      0.63189547	     -9.84063605	      4.10275239	     -5.03130714	      4.45611196	     31.82002839	      3.90985822	     -0.47713992	    -52.54180424	     -2.13262443	     -2.21593169	     20.13705006	     -6.49142980	      2.64949719	      5.18542356
      2.03000000	     -6.13412284	     -1.43561662	      3.73837299	      0.16813985	      1.24151297	     -0.83962092	      8.92413403	      8.72899023	      0.93679793	     -9.68983425	      4.25919170	     -5.23212847	      4.38165422	     32.07348854	      4.10080741	     -0.41751508	    -51.18195704	     -1.69861214	     -2.28255434	     19.77035539	     -6.49225256	      2.55387302	      5.37322575
      2.03500000	     -6.19535386	     -1.35004994	      3.69171570	      0.17309375	      1.24161148	     -0.83944558	      8.52639161	      8.68702148	      1.19574459	     -9.59895496	      4.48139925	     -5.40292810	      4.32526186	     32.34541793	      4.29232461	     -0.33013259	    -49.76545182	     -1.24566161	     -2.44354633	     19.53743818	     -6.45322007	      2.47969721	      5.49066431
      2.04000000	     -6.20186365	     -1.26246041	      3.64170715	      0.17807112	      1.24177102	     -0.83925571	      7.99868985	      8.65059216	      1.54639689	     -9.37737335	      4.54037570	     -5.70454982	      4.20589363	     32.50943487	      4.47565922	     -0.22519053	    -48.26565520	     -0.92416615	     -2.63617471	     19.04665021	     -6.46047569	      2.39263535	      5.69505584
      2.04500000	     -6.23592427	     -1.18546961	      3.58636587	      0.18301124	      1.24183707	     -0.83909468	      7.54880237	      8.62157034	      1.88170658	     -9.24197690	      4.68277361	     -5.97834576	      4.11030377	     32.68029171	      4.65123447	     -0.08594728	    -46.71253231	     -0.55959826	     -2.86856755	     18.65403093	     -6.45225816	      2.32633221	      5.85337720
      2.05000000	     -6.26463204	     -1.11936758	      3.52918836	      0.18791147	      1.24186183	     -0.83898193	      7.11214445	      8.59924933	      2.20660625	     -9.13755260	      4.84585081	     -6.22649232	      4.01764486	     32.81391474	      4.82038030	      0.09841590	    -45.09567688	     -0.20810306	     -3.13332103	     18.31123685	     -6.46113519	      2.27936757	      5.98975460
      2.05500000	     -6.32125424	     -1.07027223	      3.48731566	      0.19287466	      1.24183668	     -0.83889840	      6.66903153	      8.59158858	      2.53134068	     -8.96367536	      4.89723098	     -6.59852669	      3.88091679	     32.94130862	      4.97890626	      0.31640288	    -43.42381215	      0.10791998	     -3.47030695	     17.77867942	     -6.42595676	      2.24957501	      6.08652119
      2.06000000	     -6.35516063	     -1.00740303	      3.41085044	      0.19780223	      1.24180558	     -0.83880319	      6.23964341	      8.56880768	      2.84417903	     -8.86327510	      5.07324673	     -6.80070366	      3.79804555	     32.98884032	      5.11898829	      0.52249707	    -41.65844677	      0.42419206	     -3.74598181	     17.46769047	     -6.42256792	      2.20972778	      6.23258996
      2.06500000	     -6.41344271	     -0.97517980	      3.36665623	      0.20274948	      1.24171156	     -0.83878652	      5.80344293	      8.56980296	      3.12855524	     -8.69218459	      5.12153780	     -7.11726213	      3.66585509	     33.02980526	      5.25801356	      0.81601475	    -39.84637961	      0.68113521	     -4.15120513	     16.94417120	     -6.39200231	      2.20902789	      6.30418359
      2.07000000	     -6.46642770	     -0.94177466	      3.30010082	      0.20768075	      1.24158980	     -0.83876126	      5.38262335	      8.56926164	      3.40705579	     -8.55977920	      5.22796983	     -7.36278674	      3.56434802	     33.01175414	      5.37315369	      1.11526109	    -37.95862397	      0.93968170	     -4.49204329	     16.48500234	     -6.36834034	      2.20926435	      6.39977041
      2.07500000	     -6.51080865	     -0.91219973	      3.21012742	      0.21257528	      1.24144074	     -0.83872378	      4.97340102	      8.57368462	      3.68564040	     -8.46125926	      5.37362690	     -7.55111309	      3.48376366	     32.93532042	      5.45656811	      1.41387590	    -36.00007161	      1.18283170	     -4.78726553	     16.10027653	     -6.36729800	      2.21413822	      6.50217265
      2.08000000	     -6.57961316	     -0.90089842	      3.13449806	      0.21749037	      1.24123192	     -0.83873967	      4.57429236	      8.58913121	      3.92355055	     -8.32667595	      5.47388061	     -7.75769782	      3.39113554	     32.84395256	      5.53088451	      1.77208527	    -33.99210946	      1.38956327	     -5.13502992	     15.63774743	     -6.33928166	      2.24353757	      6.56796356
      2.08500000	     -6.64605435	     -0.91069225	      3.05471294	      0.22239357	      1.24097950	     -0.83875987	      4.17186521	      8.62552047	      4.15440497	     -8.18599507	      5.55035463	     -7.93397822	      3.30666531	     32.71039767	      5.57004967	      2.16090946	    -31.93652652	      1.54190805	     -5.49610841	     15.10627761	     -6.30794506	      2.29047286	      6.62300628
      2.09000000	     -6.72995962	     -0.93006784	      2.96260934	      0.22729683	      1.24066876	     -0.83878145	      3.80254341	      8.67089991	      4.36232963	     -8.06820108	      5.65505692	     -8.09181634	      3.23347566	     32.56070587	      5.57795554	      2.54930707	    -29.84677773	      1.68564806	     -5.80862276	     14.59950915	     -6.26456203	      2.34958661	      6.67411020
      2.09500000	     -6.83833710	     -0.97420706	      2.88275944	      0.23223169	      1.24028563	     -0.83884301	      3.43612858	      8.73444440	      4.53337939	     -7.89938589	      5.71608815	     -8.20712571	      3.17228534	     32.40928267	      5.56307434	      2.97862296	    -27.73820634	      1.76803318	     -6.17169698	     14.00246466	     -6.18457037	      2.43247858	      6.71247585
      2.10000000	     -6.92032145	     -1.02183754	      2.76418602	      0.23709937	      1.23988079	     -0.83883780	      3.09405091	      8.81184104	      4.71614641	     -7.82886051	      5.84954889	     -8.30533772	      3.12824116	     32.19802345	      5.49111609	      3.34952092	    -25.59904858	      1.84934768	     -6.38749003	     13.54055523	     -6.15485839	      2.51842715	      6.74775791
      2.10500000	     -7.03417743	     -1.09993057	      2.67867355	      0.24205390	      1.23938992	     -0.83891380	      2.73320180	      8.90732458	      4.83618924	     -7.65702531	      5.92075111	     -8.35335963	      3.09961487	     32.00050091	      5.41090985	      3.78729187	    -23.46509001	      1.83598447	     -6.73310995	     12.93691046	     -6.06394071	      2.63433821	      6.77584957
      2.11000000	     -7.14189200	     -1.19258745	      2.56638017	      0.24695552	      1.23885025	     -0.83895124	      2.40962060	      9.02469431	      4.96048519	     -7.56186886	      6.03053354	     -8.38640508	      3.09058141	     31.78582137	      5.28001654	      4.17939212	    -21.34423261	      1.79532793	     -6.97515608	     12.41164056	     -6.00048103	      2.76376930	      6.78721615
      2.11500000	     -7.23475912	     -1.28371546	      2.41603049	      0.25191034	      1.23829661	     -0.83889668	      2.07535710	      9.14881872	      5.11665146	     -7.48922278	      6.15456394	     -8.40406732	      3.08727785	     31.53403583	      5.09810290	      4.43873501	    -19.23542693	      1.74410375	     -7.07777496	     12.01725914	     -5.94193772	      2.87453468	      6.82617594
      2.12000000	     -7.33352274	     -1.40639725	      2.28729754	      0.25688077	      1.23766572	     -0.83889879	      1.73380626	      9.29989240	      5.23154058	     -7.38758212	      6.25366830	     -8.40157063	      3.10411804	     31.29905873	      4.90001289	      4.73099367	    -17.19615291	      1.62602005	     -7.21774711	     11.57427899	     -5.87173561	      3.02008336	      6.84308344
